<svg width="1752" height="1740" viewBox="0 0 1752 1740" fill="none" xmlns="http://www.w3.org/2000/svg">
<path d="M858.54 0.935196C905.566 -2.66734 952.812 4.16663 996.885 20.9469C1035.41 35.61 1078.39 61.942 1107.6 90.9567C1135.64 118.815 1128.61 117.196 1166.64 130.707L1219.22 149.732C1270 168.641 1320.59 188.074 1370.97 208.026C1385.44 213.59 1408.83 221.276 1422.1 229.368C1423.57 230.038 1423.68 233.228 1423.7 234.78C1425.07 327.717 1422.13 421.421 1424.15 514.264L1750.37 514.187C1751.95 605.91 1750.41 702.312 1750.42 794.402L1750.53 885.034C1750.56 900.639 1750.97 917.954 1749.92 933.315C1749.03 946.362 1733.66 962.622 1723.09 970.151C1683.12 998.618 1651.34 991.245 1607.57 983.413C1589.68 980.063 1571.7 977.192 1553.66 974.809C1552.19 1092.32 1554.55 1210.68 1553.54 1328.21C1514.17 1321.97 1474.27 1310.41 1435.2 1302.14C1424.56 1299.9 1393.92 1291.67 1384.19 1292.03C1382.74 1297.94 1383.76 1325.16 1383.91 1332.53C1378.55 1340.06 1368.69 1350.93 1362.34 1358.17C1343.8 1379 1324.78 1399.4 1305.3 1419.35C1185.33 1545.13 1046.72 1651.71 894.336 1735.34L883.76 1739.83C837.76 1713.02 791.429 1686.73 747.022 1657.26C610.739 1565.89 487.717 1456.17 381.434 1331.17C380.692 1319.65 381.141 1303.21 381.135 1291.31C370.704 1292.03 325.116 1303.02 312.52 1306.1C276.758 1314.84 240.313 1321.83 204.737 1330.37L204.835 1109.65C204.836 1067.66 205.42 1024.27 204.519 982.465C204.261 982.573 204.003 982.69 203.743 982.788C203.309 982.964 202.872 983.13 202.44 983.305C188.354 988.999 122.011 997.983 104.208 998.12C75.6893 998.325 51.8104 990.337 31.3162 970.063C0.720522 939.809 0.817203 909.321 0.685367 868.901L0.519345 692.849C0.473447 658.365 -1.98358 613.539 4.20489 580.164C7.76642 564.096 16.9881 551.625 27.9178 540.032C60.7147 505.245 117.195 514.213 161.413 514.207L347.382 514.075C348.801 483.797 347.755 445.495 347.754 414.736L347.632 229.838C360.313 222.134 400.352 208.067 415.858 202.044C463.358 183.155 511.086 164.843 559.029 147.113L605.192 129.96C623.126 123.404 632.237 122.523 645.629 108.117C704.921 44.3317 773.065 11.8014 858.54 0.935196Z" fill="#04A4F2"/>
<path d="M868.76 36.1735C908.984 35.0553 948.164 39.0475 985.869 54.1266C1022.84 68.8092 1056.45 90.8493 1084.67 118.911C1094.46 128.555 1104.06 141.399 1114.53 149.842C1116.67 151.573 1135.91 157.547 1139.45 158.752C1155 164.075 1170.5 169.533 1185.96 175.123C1235.37 193.421 1284.62 212.163 1333.7 231.346C1344.03 235.334 1379 247.73 1386.4 252.858C1387.24 258.166 1386.83 274.672 1386.83 280.753L1386.87 340.748L1386.77 548.437C1398.4 549.357 1416.04 548.856 1427.97 548.836L1500.32 548.731L1725.38 548.727L1726.4 778.383C1726.43 809.932 1727.68 841.325 1726.74 872.924C1725.92 900.864 1725.88 918.51 1703.99 938.647C1680.48 960.288 1656.66 954.507 1627.84 949.946C1591.05 945.278 1553.28 935.024 1516.53 933.471C1518.61 946.382 1517.82 993.071 1517.85 1008.23L1518.2 1193.01L1518.14 1250.49C1518.17 1259.74 1517.83 1273.78 1519.02 1282.47C1506.78 1282.63 1491.24 1278.09 1479.01 1275.3L1395.7 1256.71C1385.61 1254.47 1358.2 1247.8 1349.46 1247.61C1341.9 1252.4 1349.56 1307.58 1346.12 1315.66C1339.07 1332.26 1312.85 1358.43 1300.43 1372.06C1181.08 1502.13 1041.42 1611.99 886.875 1697.33C879.433 1696.65 837.541 1670.97 827.91 1665.15C706.716 1592.22 595.213 1504.27 496.045 1403.4C473.411 1380.54 437.996 1343.74 418.659 1318.19C417.603 1296.54 418.87 1269.02 418.572 1246.41C406.531 1248.86 243.138 1285.17 240.53 1283.69C238.188 1276.02 239.844 1203.48 239.851 1188.54L239.848 1032.15C239.862 1002.91 239.404 972.241 240.256 943.198C222.437 943.628 204.414 947.456 186.826 950.288C171.723 953.51 153.903 955.258 139.072 958.549C99.7703 967.251 64.785 966.44 43.4549 926.987C37.8445 916.616 37.4237 908.549 37.3953 896.684C37.2293 826.639 37.3631 756.587 37.2762 686.54L37.2176 628.052C37.2117 603.082 34.2264 584.971 53.3475 566.166C62.5535 557.111 74.2537 551.474 87.0897 550.333C117.893 547.592 149.861 548.741 180.848 548.76L382.699 548.791C382.574 533.202 383.344 518.765 383.437 503.479L383.742 376.409C383.769 335.677 382.368 295.274 382.795 254.199C390.739 248.1 412.959 241.033 423.299 236.944C498.574 207.174 574.43 178.489 650.583 151.126C657.084 148.79 676.423 126.816 682.968 120.303C732.76 70.7594 798.261 39.6012 868.76 36.1735Z" fill="#010D1F"/>
<path d="M855.303 91.7321C862.693 90.4157 873.037 91.276 880.576 90.8707C921.767 88.6559 964.58 102.089 999.775 123C1008.65 128.278 1053.44 160.795 1055.94 170.932C1048.64 181.605 994.101 224.189 981.23 234.642C945.761 263.548 910.478 292.685 875.39 322.053C883.594 331.134 916.553 356.225 927.344 365.139C969.756 400.178 1014.62 433.63 1056.19 469.657C1038.04 489.212 1027.11 499.829 1003.97 514.467C995.263 520.862 980.283 528.217 970.293 532.339C894.121 563.767 802.504 550.101 739.092 497.577C692.266 458.977 662.846 403.235 657.399 342.796C651.436 281.731 670.359 220.843 709.884 173.915C740.599 137.27 781.16 109.608 827.54 97.5163C836.714 95.1246 845.842 92.5729 855.303 91.7321Z" fill="#FEDB08"/>
<path d="M928.408 594.306C942.402 593.005 1008.75 593.153 1019.64 596.7C1027.77 599.347 1034.83 606.253 1038.41 613.982C1039.73 616.842 1039.81 620.318 1039.92 623.42C1041.13 658.252 1039.8 693.588 1039.79 728.48C1039.78 756.962 1041.2 785.882 1040.32 814.291C1040.21 817.822 1040.03 821.544 1038.62 824.83C1034.25 835.076 1026.58 838.923 1016.9 843.109C1011.45 844.066 999.551 844.555 993.935 844.081C969.658 842.032 926.513 852.006 912.256 826.425C909.931 822.199 908.457 817.555 907.939 812.76C905.937 792.939 903.72 625.366 907.48 614.42C910.869 604.548 919.551 598.802 928.408 594.306Z" fill="white"/>
<path d="M957.265 639.244C969.971 638.989 982.685 639.02 995.39 639.34C996.25 671.615 995.635 705.153 996.084 737.538C996.24 749.135 997.041 786.002 995.439 795.479L993.642 796.558C981.982 796.8 964.951 796.971 953.554 795.682C952.383 785.024 952.744 773.974 952.724 763.235C952.627 726.083 952.451 688.918 952.588 651.766C952.607 644.664 952.187 644.079 957.265 639.244Z" fill="#010D1F"/>
<path d="M662.381 909.565C670.979 909.546 679.519 909.653 688.116 909.184C693.059 908.911 699.916 906.753 703.955 907.876C706.464 915.962 705.555 987.456 705.564 999.526L705.947 1177.23C691.377 1177.55 681.232 1177.8 666.876 1179.68C665.86 1148.92 667.265 1116.38 666.839 1085.51C666.556 1064.91 668.67 1044.15 663.984 1024.12C660.687 1057.84 646.836 1099.53 638.749 1132.99C637.754 1137.1 621.36 1140.86 615.982 1137.8C611.839 1129.16 596.484 1067.28 594.94 1056.91C588.826 1063.09 590.422 1079.06 589.787 1087.76C588.445 1106.14 590.303 1124.52 590.574 1142.86C590.751 1152.45 589.039 1162.07 587.355 1171.45C586.929 1173.58 587.247 1178.66 587.019 1180.9C586.707 1181.98 586.067 1183.55 585.659 1184.65C580.578 1187.52 556.377 1187.61 548.82 1188.01C547.249 1123.12 549.489 1054.92 549.125 989.76C549.041 974.839 548.26 929.565 550.833 917.729C554.616 914.917 581.933 914.897 589.755 914.458C595.418 932.758 599.835 952.749 604.364 971.479C611.236 1000.75 618.724 1029.87 626.82 1058.81C629.082 1040.46 638.346 1006.04 643.018 986.831C648.364 964.858 655.477 930.278 662.381 909.565Z" fill="#04A4F2"/>
<path d="M587.019 1180.9C585.607 1162.04 586.58 1128.9 586.431 1109.15C586.251 1085.1 584.687 1044.09 588.43 1021.87C589.149 1031.01 590.015 1040.84 593.028 1049.57C594.21 1052.97 594.389 1053.36 594.94 1056.91C588.826 1063.09 590.422 1079.06 589.787 1087.76C588.445 1106.14 590.303 1124.52 590.574 1142.86C590.751 1152.45 589.039 1162.07 587.355 1171.45C586.929 1173.58 587.247 1178.66 587.019 1180.9Z" fill="#020915"/>
<path d="M489.694 924.799C504.254 924.194 517.547 929.526 520.855 945.034C525.041 964.663 523.771 985.639 523.803 1005.71L523.899 1132.21C523.894 1161.42 526.515 1189.03 489.834 1196.19C474.349 1199.2 458.417 1201.2 443.022 1204.48L442.122 1204.64C402.85 1211.14 409.257 1166.15 409.266 1141.21L409.33 1067.63L409.221 997.768C409.162 942.651 407.583 933.501 469.256 926.967C475.928 926.255 482.704 925.21 489.694 924.799Z" fill="#04A4F2"/>
<path d="M479 973.647C481.125 975.346 482.074 977.319 483.638 979.673C485.591 1004.22 483.653 1037.27 484.343 1062.55C484.181 1088.29 484.824 1114.06 483.951 1139.77C483.408 1155.75 470.616 1153.59 458.659 1154.53C455.055 1154.86 452.421 1155.61 449.439 1153.81C447.601 1148.32 448.635 992.807 448.855 978.422C458.771 976.538 468.998 975.092 479 973.647Z" fill="#010D1F"/>
<path d="M1404.83 596.247L1448.5 596.258C1448.79 609.872 1447.37 707.236 1450.7 711.503C1459.7 715.433 1483.79 715.466 1493.83 715.077C1496.5 681.625 1492.16 631.952 1491.83 596.569C1498.46 596.092 1505.87 596.312 1512.58 596.364C1521.19 596.239 1529.8 596.259 1538.42 596.425L1538.66 698.174C1538.68 715.673 1539.27 736.807 1538.5 754.077C1539.21 766.874 1538.69 785.97 1538.72 799.221L1538.69 891.733C1528.91 891.87 1509.87 887.114 1495.72 886.567L1495.69 768.076C1488.38 767.972 1454.7 764.129 1451.57 767.391C1448.81 776.603 1449.09 866.987 1450.46 877.563C1434.26 877.505 1421.36 875.053 1405.53 872.251L1404.83 596.247Z" fill="white"/>
<path d="M1512.58 596.364C1521.19 596.239 1529.8 596.259 1538.42 596.425L1538.66 698.174C1538.68 715.673 1539.27 736.807 1538.5 754.077C1536.48 749.082 1536.46 701.884 1535.76 692.38C1534.83 704.521 1536.88 734.653 1535.29 744.144C1533.83 736.989 1534.07 707.286 1534.02 697.98L1533.7 600.754C1526.4 599.232 1520.05 597.715 1512.58 596.364Z" fill="#D1D1D1"/>
<path d="M425.85 596.677C439.457 596.052 452.301 596.22 465.922 596.358C466.41 604.094 469.837 621.388 471.316 629.893C475.295 652.745 479.405 675.573 483.649 698.377C493.266 750.726 501.908 805.87 512.46 857.7C502.039 860.102 477.515 863.012 466.791 862.983C466.25 849.34 462.014 836.008 461.456 818.532C452.421 818.957 442.741 819.786 433.573 820.299L409.951 822.041C409.184 829.2 405.248 864.936 401.719 868.901C396.348 874.926 365.289 876.567 356.501 877.514C361.763 850.073 401.669 602.262 404.224 598.914C406.131 596.416 421.919 596.903 425.85 596.677Z" fill="white"/>
<path d="M426.678 702.989L427.999 704.033L429.087 703.394C435.577 703.608 437.011 704.005 443.106 705.623C446.059 717.862 452.524 761.025 452.596 773.459L414.612 777.112C417.647 757.215 422.042 737.301 424.222 717.194C424.724 712.56 425.526 707.509 426.678 702.989Z" fill="#010D1F"/>
<path d="M426.678 702.989C429.839 684.217 431.814 671.783 436.026 652.913C437.781 668.829 442.254 691.325 443.106 705.623C437.011 704.005 435.577 703.608 429.087 703.394L427.999 704.033L426.678 702.989Z" fill="#020915"/>
<path d="M1011.63 905.825C1024.09 905.307 1037.41 905.708 1049.95 905.864C1059.94 930.961 1068.76 965.532 1078.21 991.508C1081.48 1000.52 1095.99 1044.23 1096.37 1050.67L1098.82 1049.34C1102.93 1041.03 1099.27 926.616 1100.75 906.586C1121.59 904.575 1122.17 907.709 1139.72 910.053L1140.52 910.151C1141.02 934.165 1140.39 959.887 1140.56 984.204L1141.16 1179.15C1133.58 1178.73 1110.97 1178.08 1104.78 1176.7C1098.73 1167.99 1074.73 1083.16 1068.8 1066.67C1065.86 1058.48 1061.18 1043.17 1058.09 1034.49C1057.35 1032.43 1057.01 1027.8 1056.94 1025.43C1051.02 1033.36 1051.85 1041.62 1051.09 1051.71L1051.03 1127.67C1051.03 1140.62 1051.54 1159.98 1050.05 1172.29C1046.05 1175.53 1020.81 1173.2 1013.76 1172.87C1012.34 1083.85 1011.63 994.838 1011.63 905.825Z" fill="#04A4F2"/>
<path d="M1100.75 906.586C1121.59 904.575 1122.17 907.709 1139.72 910.053L1140.52 910.151L1139.52 910.21C1129.76 910.669 1109.58 907.973 1102.52 911.538C1100.33 920.776 1101.22 937.964 1102.14 947.69C1105.35 981.792 1103.08 1016 1104.6 1050.19C1104.9 1057.09 1104.8 1062.22 1103.53 1069.09C1100.2 1062.7 1095.34 1056.85 1096.37 1050.67L1098.82 1049.34C1102.93 1041.03 1099.27 926.616 1100.75 906.586Z" fill="#096573"/>
<path d="M1051.09 1051.71C1049.57 1041.62 1046.88 1022.09 1049.79 1012.19C1053.12 1015.81 1056.73 1020.63 1056.94 1025.43C1051.02 1033.36 1051.85 1041.62 1051.09 1051.71Z" fill="#096573"/>
<path d="M611.423 1383.75C618.828 1383.5 620.414 1384.68 625.811 1389.51C638.245 1400.63 650.492 1411.99 662.871 1423.16C730.898 1484.59 806.559 1533.86 883.33 1583.27C903.789 1568.57 929.463 1553.57 951.035 1539.12C994.228 1510.15 1036.09 1479.27 1076.52 1446.56C1086.17 1438.61 1143.36 1386.24 1148.54 1384.73C1154.75 1382.93 1188.4 1385.57 1193.4 1388.67L1193.48 1390.08C1181.03 1402.08 1168.46 1413.95 1155.76 1425.7C1144.67 1437.1 1120.75 1456.85 1107.96 1467.49C1056.1 1510.41 1001.87 1550.34 945.498 1587.11C927.803 1598.68 902.295 1615.63 883.935 1624.81C856.865 1612.28 826.096 1590.19 801.139 1573.66C726.745 1524.4 655.513 1470.16 591.98 1407.35C585.108 1400.56 578.377 1393.12 570.294 1387.81C584.179 1385.96 596.343 1386.24 611.423 1383.75Z" fill="#04A4F2"/>
<path d="M142.322 596.476C171.763 594.071 208.443 591.879 206.268 632.467C205.654 643.943 209.093 681.775 205.354 689.794C198.969 692.166 173.574 693.271 163.165 695.559L161.848 695.857C161.707 682.405 161.686 669.554 162.35 656.109C162.52 652.674 161.804 650.707 159.346 648.345C152.312 645.359 133.359 648.586 123.616 648.933C122.445 691.774 123.961 737.825 123.435 780.968C123.226 798.033 122.47 846.206 124.37 861.294L126.004 861.587C129.941 858.169 151.993 856.782 161.544 854.438C162.354 841.973 161.904 826.805 161.807 814.108C172.426 812.731 182.563 811.247 193.259 810.064C199.676 808.404 202.395 808.286 208.978 807.803C207.991 838.816 219.181 897.26 176.911 904.262C153.68 908.11 129.487 913.862 106.211 915.854C72.5809 918.745 78.9598 875.005 78.741 852.827C78.3856 820.76 78.2703 788.691 78.3973 756.622L78.3123 672.997C78.2967 657.445 78.0477 641.468 78.8787 625.935C79.1854 620.184 81.5076 615.653 84.5916 610.838C93.9236 596.266 112.682 600.063 127.361 598.918C132.588 598.51 137.167 597.554 142.322 596.476Z" fill="white"/>
<path d="M528.006 620.391C529.84 610.661 540.808 598.415 551.267 596.775C563.927 594.791 578.469 595.977 591.056 594.866C665.829 588.26 655.162 612.703 656.836 673.011C647.936 673.855 622.102 676.41 614.46 675.388C608.652 669.326 616.472 650.043 609.721 640.788C604.231 637.674 585.434 639.167 578.268 639.368C574.172 642.294 572.303 643.271 571.811 648.55C570.532 662.257 571.499 677.416 571.626 691.259C580.914 697.207 594.244 699.712 604.66 703.436C631.284 712.957 657.043 713.88 657.736 748.528C659.051 754.846 662.17 763.683 661.953 769.88C661.508 782.537 665.661 807.072 657.7 817.213C655.305 855.317 613.516 851.635 585.539 853.745C569.35 854.165 549.672 860.747 537.041 846.909C531.53 841.121 528.522 833.889 528.333 825.832C527.952 809.668 528.029 793.399 528.003 777.212C544.004 776.512 557.428 775.812 573.238 772.42C571.989 809.966 570.641 807.283 607.834 805.154L614.391 800.244C614.632 788.631 614.965 771.263 613.979 760.04C588.767 742.161 536.562 744.739 528.355 711.479C526.772 703.894 524.074 687.347 523.979 679.8C523.753 661.865 522.691 643.053 524.722 625.297C524.918 623.59 526.871 621.587 528.006 620.391Z" fill="white"/>
<path d="M528.355 711.479C526.772 703.894 524.074 687.347 523.979 679.8C523.753 661.865 522.691 643.053 524.722 625.297C524.918 623.59 526.871 621.587 528.006 620.391L528.204 680.997C528.246 689.969 528.842 703.009 528.355 711.479Z" fill="#676566"/>
<path d="M657.736 748.528C659.051 754.846 662.17 763.683 661.953 769.88C661.508 782.537 665.661 807.072 657.7 817.213C657.891 794.331 657.467 771.474 657.736 748.528Z" fill="#3A393E"/>
<path d="M771.822 594.036C781.93 594.404 808.834 592.553 815.782 594.44C819.286 599.475 818.474 640.147 818.488 649.316L818.615 737.27C818.626 746.052 819.384 838.91 817.827 841.715L815.611 841.749C801.397 841.307 787.144 843.543 772.216 843.188L772.011 740.768C758.585 741.102 742.71 742.568 728.869 743.224C728.919 773.549 727.906 814.177 730.013 843.998C715.379 844.399 700.737 845.844 685.939 846.264C684.989 790.606 685.846 732.784 685.672 676.97L685.267 625.699C685.176 617.131 684.593 601.845 685.707 593.734C696.477 595.326 717.54 594.322 728.358 593.105C730.288 620.107 728.654 667.275 728.937 695.902C742.794 695.97 757.491 695.335 771.413 694.975C772.341 684.032 771.9 670.046 771.842 658.781C771.568 637.2 771.561 615.617 771.822 594.036Z" fill="white"/>
<path d="M733.516 905.893L790.916 904.731C813.445 904.302 848.469 900.229 850.481 931.196C853.016 970.18 853.265 1017.03 850.25 1055.82C847.137 1095.87 787.87 1077.12 773.619 1086.7C772.194 1089.76 772.726 1092.84 772.855 1096.3C778.711 1103.4 775.328 1144.01 775.633 1154.6C775.711 1157.31 774.506 1159.78 772.899 1161.93L772.747 1173.4C760.475 1174.96 746.058 1175.23 733.701 1175.53C732.71 1146.01 733.516 1111.85 733.507 1082.05L733.516 905.893Z" fill="#04A4F2"/>
<path d="M772.855 1096.3C778.711 1103.4 775.328 1144.01 775.633 1154.6C775.711 1157.31 774.506 1159.78 772.899 1161.93C772.69 1140.05 772.676 1118.18 772.855 1096.3Z" fill="#002939"/>
<path d="M772.145 957.954L772.27 953.745C777.907 949.194 809.24 949.048 810.587 955.073C814.779 973.862 812.932 1009 811.825 1028.54C811.098 1041.36 794.538 1038.54 786.596 1039.1C775.999 1038.97 772.349 1041.71 772.824 1029.93C771.789 1007.44 772.233 980.639 772.145 957.954Z" fill="#010D1F"/>
<path d="M772.145 957.954L774.389 965.503C776.609 973.11 777.227 1017.58 774.47 1027.39C774.326 1027.9 773.242 1029.35 772.824 1029.93C771.789 1007.44 772.233 980.639 772.145 957.954Z" fill="#002939"/>
<path d="M1568.02 596.486C1593.92 595.191 1622.74 597.075 1648.54 599.382C1659.22 600.337 1669.2 598.248 1680.4 600.883C1682.92 606.515 1681.84 644.645 1681.78 653.464C1665.91 653.474 1629.62 651.756 1613.8 649.273C1615.24 670.283 1615.62 703.773 1614.8 725.269C1633.82 728.091 1652.99 729.629 1672.21 729.868V782.136C1650.66 779.234 1633.83 777.855 1612.38 776.128L1612.56 777.688C1613.3 784.56 1613.29 848.139 1613.79 848.725C1619.81 855.766 1677.25 856.303 1683.52 862.114C1688.87 873.315 1687.48 900.463 1685.6 913.237C1685.36 914.79 1683.4 915.473 1682.03 915.903C1671.83 912.592 1661.43 911.967 1651.46 909.78C1626.04 904.174 1593.95 902.036 1569.43 895.278L1568.02 596.486Z" fill="white"/>
<path d="M1614.8 725.269L1612.05 723.831C1611.84 723.154 1611.39 721.876 1611.45 721.278C1612.58 709.327 1608.91 656.227 1613.8 649.273C1615.24 670.283 1615.62 703.773 1614.8 725.269Z" fill="#3A393E"/>
<path d="M1683.52 862.114C1688.87 873.315 1687.48 900.463 1685.6 913.237C1685.36 914.79 1683.4 915.473 1682.03 915.903C1681.95 897.963 1682.44 880.024 1683.52 862.114Z" fill="#3A393E"/>
<path d="M901.152 902.28C910.508 902.309 941.182 902.182 948.223 903.725C953.271 913.471 957.695 949.985 959.863 962.632L978.721 1070.91L989.238 1131.85C991.299 1143.47 995.703 1162.33 995.732 1173.18C982.09 1172.97 968.525 1173 954.853 1172.67C952.646 1154.7 952.197 1143.62 947.978 1125.82C947.451 1124.28 947.676 1124.95 946.133 1123.66C937.988 1122.81 909.141 1122.47 901.953 1125.65C900.205 1129.76 895.566 1166.37 894.99 1172.48C882.519 1172.99 865.84 1173.11 853.539 1172.34C858.248 1153.82 861.079 1126.19 864.837 1106.27C872.119 1067.7 877.724 1026.85 885.078 988.344C888.31 971.401 894.658 913.579 901.152 902.28Z" fill="#04A4F2"/>
<path d="M927.431 975.864C928.887 984.448 928.262 993.852 929.726 1002.43C933.32 1023.51 935.068 1045.23 938.838 1066.21C939.765 1071.37 941.631 1071.29 939.297 1076.65C935.449 1078.4 927.021 1077.68 922.373 1077.59L908.935 1077.52C910.898 1055.97 914.433 1036.68 917.783 1015.41C919.375 1005.25 919.56 994.946 921.484 985.005C925.146 981.508 925.967 980.717 927.431 975.864Z" fill="#020915"/>
<path d="M1374.52 933.198C1390.06 930.942 1423.75 938.872 1439.91 941.997C1472.62 948.325 1471.3 976.762 1471.16 1003.25C1471.1 1013.78 1471.17 1024.32 1471.37 1034.86C1471.04 1034.86 1470.72 1034.87 1470.39 1034.87H1468.77C1459.69 1034.9 1440.32 1032.59 1432.53 1028.16C1425.95 1019.1 1439.73 992.924 1425.48 985.6C1422.02 982.153 1399.63 978.051 1397.92 985.268C1395.81 994.145 1396.73 1029.01 1398.01 1037.88C1413.9 1056.13 1443.06 1068.97 1459.78 1087.3C1470.31 1098.83 1470.44 1113.3 1470.04 1127.81C1469.81 1138.66 1469.68 1149.51 1469.63 1160.36C1469.6 1178.81 1475.93 1207.1 1460.61 1220.69C1456.27 1223.11 1453.99 1224.07 1448.69 1224.4C1437.08 1225.13 1425.36 1219.4 1414.76 1217.92C1349.1 1208.82 1357.35 1182.99 1357.7 1124.63C1373.95 1124.84 1381.57 1128.22 1396.86 1130.04C1397.19 1140.62 1395.46 1152.91 1398.81 1162.9C1401.44 1170.73 1423.76 1175.36 1429.36 1172.33C1433.48 1166.9 1431.44 1132.73 1431.77 1123.4C1421.23 1105.52 1373.91 1082.56 1362.05 1062.94C1359.63 1058.97 1358.12 1054.51 1357.64 1049.88C1356.48 1039.67 1356.87 958.471 1358.89 951.235C1361.35 942.378 1366.69 937.495 1374.52 933.198Z" fill="#04A4F2"/>
<path d="M1234.21 915.903C1241.05 915.844 1251.24 918.198 1258.56 919.008L1304.43 923.852C1313.35 924.741 1325.88 924.741 1333.94 927.622C1337.43 934.399 1335.56 967.466 1335.32 976.684C1318.97 974.751 1297.5 971.069 1280.68 970.864C1279.05 970.844 1277.21 972.172 1275.88 973.149C1271.22 980.454 1274.51 1023.09 1274.76 1034.07C1294.48 1034.88 1309.23 1039.08 1329.24 1039.62C1330.06 1054.36 1329.7 1072.15 1329.77 1087.12C1309.15 1087.03 1294.6 1082.41 1274.6 1081.94C1275.16 1101.49 1274.75 1123.28 1274.76 1143C1275.39 1144.46 1276.21 1146 1276.93 1147.44C1278.49 1148.33 1333.48 1154.46 1340.04 1155.53C1340.86 1172.07 1340.83 1188.64 1339.94 1205.17C1326.27 1202.2 1242 1191.01 1237.87 1188.81C1232.5 1173 1233.67 946.196 1234.21 915.903Z" fill="#04A4F2"/>
<path d="M358.84 939.331C396.032 940.63 386.133 997.417 385.818 1024.36C374.158 1028.03 360.127 1030.33 347.835 1033.04C347.383 1025.02 351.812 988.901 340.652 989.819C332.002 990.532 318.19 990.239 318.406 1001.75C319.522 1061.27 316.776 1122.01 318.931 1181.41C329.902 1176.5 349.31 1178.43 350.317 1164.03C350.875 1156.05 350.055 1143.59 349.489 1135.55C363.27 1132.47 372.04 1130.36 385.963 1128.42L386.146 1140.93C386.282 1161.01 390.163 1197.35 373.64 1210.3C357.385 1223.04 313.775 1230.57 293.683 1229.83C285.929 1223.05 281.57 1218.66 280.228 1207.49C278.814 1195.73 279.437 1181.23 279.492 1169.25L279.325 1025.83C279.259 947.797 279.506 951.401 358.84 939.331Z" fill="#04A4F2"/>
<path d="M1100.03 245.691C1140.2 236.534 1180.17 261.775 1189.16 301.985C1198.15 342.195 1172.75 382.055 1132.5 390.885C1092.49 399.664 1052.91 374.438 1043.96 334.459C1035.02 294.48 1060.09 254.796 1100.03 245.691Z" fill="white"/>
<path d="M1071.95 845.932C1072.49 821.267 1070.05 598.26 1072.39 593.249C1075.16 592.152 1077.35 592.596 1080.26 593.422C1088.6 595.796 1098.72 594.414 1108.3 594.631C1133.11 595.164 1157.94 595.531 1182.75 595.732C1189.4 602.636 1187.24 629.63 1183.04 637.667L1182.27 640.183C1178.11 642.187 1125.56 640.627 1118.68 639.561C1119.34 648.717 1119.51 656.849 1119.41 666.009C1119.3 677.134 1117.16 688.881 1117.35 699.811C1121.8 701.638 1164.47 700.985 1171.8 701.003C1171.89 716.259 1172.02 731.131 1171.5 746.377C1151.09 744.685 1137 744.078 1116.47 743.968C1116.18 780.504 1118.57 812.355 1118.65 848.198C1102.26 847.417 1088.68 846.264 1071.95 845.932Z" fill="white"/>
<path d="M1117.35 699.811C1115.17 693.209 1114.48 646.926 1116.23 640.651L1118.68 639.561C1119.34 648.717 1119.51 656.849 1119.41 666.009C1119.3 677.134 1117.16 688.881 1117.35 699.811Z" fill="#3A393E"/>
<path d="M1182.75 595.732C1189.4 602.636 1187.24 629.63 1183.04 637.667C1182.2 626.555 1181.51 606.459 1182.75 595.732Z" fill="#3A393E"/>
<path d="M281.865 595.876L284.296 596.867C285.379 601.179 284.839 647.026 284.974 654.504C286.048 713.717 283.203 775.915 285.573 834.912C292.09 834.387 336.666 829.312 340.993 827.308L343.537 828.839C349.226 841.321 350.744 867.065 342.869 878.628C339.596 881.85 249.081 891.792 238.723 891.841L238.068 600.03C253.071 598.609 266.706 596.81 281.865 595.876Z" fill="white"/>
<path d="M281.865 595.876L284.296 596.867C285.379 601.179 284.839 647.026 284.974 654.504C286.048 713.717 283.203 775.915 285.573 834.912L282.695 834.177C282.323 833.659 281.78 833.226 281.578 832.62C281.049 831.029 280.938 612.056 281.865 595.876Z" fill="#676566"/>
<path d="M343.537 828.839C349.226 841.321 350.744 867.065 342.869 878.628C343.869 865.141 343.155 843.319 343.537 828.839Z" fill="#3A393E"/>
<path d="M1253.91 595.703C1266.44 594.448 1291.81 595.67 1305.29 595.909C1330.67 596.212 1356.05 596.327 1381.45 596.252L1381.34 648.118C1369.04 648.223 1355.01 646.395 1342.29 645.879L1343.35 827.212L1343.31 867.807C1330.99 868.217 1313.12 864.985 1298.49 864.624C1300.83 846.421 1299.14 806.426 1298.86 786.188L1296.17 644.15L1257.05 643.747C1254.74 627.063 1257.69 615.353 1253.91 595.703Z" fill="white"/>
<path d="M607.9 236.877L608.913 237.88C610.346 242.127 600.541 269.882 599.585 279.955C590.264 284.421 579.858 287.744 570.128 291.431L517.62 311.241C509.779 314.189 493.849 319.538 487.517 323.595C483.198 332.422 485.654 522.194 485.667 548.464C474.202 548.927 461.134 548.656 449.533 548.639C448.882 548.407 448.405 547.837 447.863 547.406C446.968 539.932 447.507 527.403 447.513 519.466L447.463 296.732C461.46 290.214 484.553 282.392 499.661 276.812C535.807 263.681 571.888 250.37 607.9 236.877Z" fill="#04A4F2"/>
<path d="M1223.63 259.212C1229.8 261.228 1240.76 266.001 1247.48 268.529C1273.17 278.334 1298.8 288.289 1324.36 298.396C1325.76 380.172 1324.54 466.442 1324.53 548.527C1312 548.884 1298.99 548.669 1286.42 548.62C1285.34 475.115 1286.32 399.166 1286.3 325.46C1271.65 316.137 1239.59 308.43 1229.69 298.96C1229.07 285.948 1221.89 268.423 1223.63 259.212Z" fill="#04A4F2"/>
<path d="M1167.28 910.649C1178.27 910.346 1195.95 912.319 1206.9 913.891C1208.69 934.975 1207.45 975.083 1207.58 998.266C1207.6 1060.77 1208.01 1123.27 1208.82 1185.77C1197.29 1185.89 1183.22 1181.94 1167.7 1182.07L1167.28 910.649Z" fill="#04A4F2"/>
<path d="M563.76 1340.04L563.405 1341.57C558.477 1342.96 543.798 1343.23 537.928 1343.58L546.771 1343.54C540.199 1344.5 510.984 1347.13 506.934 1342.33C499.958 1334.06 501.683 1306 501.785 1294.88C501.891 1283.32 500.242 1243.31 506.154 1235.58C509.587 1234.85 507.96 1234.62 511.155 1236.54C533.616 1242.92 567.063 1226.31 583.73 1250.88C594.755 1267.12 578.175 1281.73 578.325 1289.02C586.771 1297.51 587.683 1297.42 588.031 1310.17C588.453 1325.65 579.775 1338.12 563.76 1340.04Z" fill="white"/>
<path d="M563.76 1340.04L563.405 1341.57C558.477 1342.96 543.798 1343.23 537.928 1343.58L546.771 1343.54C540.199 1344.5 510.984 1347.13 506.934 1342.33C499.958 1334.06 501.683 1306 501.785 1294.88C501.891 1283.32 500.242 1243.31 506.154 1235.58C509.587 1234.85 507.96 1234.62 511.155 1236.54C508.531 1238.11 507.942 1238.1 506.662 1240.85C505.206 1269.76 506.567 1311.1 506.795 1340.9C525.786 1341.48 544.794 1341.2 563.76 1340.04Z" fill="#020915"/>
<path d="M532.606 1296.93C547.04 1296.52 578.174 1296.6 559.168 1319.42C553.465 1320.56 534.731 1322.09 530.187 1318.82C529.494 1314.34 529.646 1299.91 532.606 1296.93Z" fill="#010D1F"/>
<path d="M531.794 1255.98C539.953 1256.3 551.336 1254.51 558.437 1259.03C563.175 1262.05 563.261 1273.52 560.094 1277.51C550.234 1278.64 539.559 1278.37 529.666 1277.85C530.009 1271.4 530.148 1261.88 531.794 1255.98Z" fill="#010D1F"/>
<path d="M630.86 1237.2C648.138 1237.59 665.646 1236.92 682.685 1237.38C698.039 1238.74 709.738 1247.51 710.554 1263.37C711.712 1285.87 710.866 1289.97 692.926 1302.83C698.661 1315.56 706.773 1327.79 712.796 1340.82C705.808 1341.22 696.837 1341.03 689.703 1341.09C679.688 1338.65 678.404 1321.54 672.813 1313.5C666.088 1303.83 662.885 1304.94 652.814 1305.81L652.845 1341.35L628.637 1340.69C628.079 1316.44 628.256 1265.89 629.055 1239.48C629.657 1238.73 630.259 1237.96 630.86 1237.2Z" fill="white"/>
<path d="M652.98 1257.78C660.6 1257.36 675.471 1255.97 681.371 1260.13C683.702 1261.76 685.266 1264.27 685.703 1267.08C686.407 1271.66 686.441 1277.41 683.619 1281.25C672.86 1286.41 664.638 1285.39 652.938 1284.79C652.649 1276.24 652.933 1266.42 652.98 1257.78Z" fill="#010D1F"/>
<path d="M920.439 1235.12C946.318 1233.99 960.459 1236.83 971.767 1262.17C968.887 1263.28 956.152 1268.66 951.308 1267.97C946.738 1267.33 945.381 1260.5 940.937 1258.54C903.174 1241.86 908.496 1293.77 911.67 1311.1C921.006 1322.88 925.732 1321.05 940.019 1320.21L947.715 1313.31L948.32 1301.13L929.092 1301.24C928.945 1296.23 928.252 1287.58 929.648 1283.22L931.816 1282.48L971.806 1282.5C971.816 1294.78 974.15 1313.47 968.437 1323.67C955.918 1351.71 889.58 1347.4 887.344 1314.68C884.922 1279.27 877.861 1244.21 920.439 1235.12Z" fill="white"/>
<path d="M1056.36 1235.12C1074.69 1234.29 1104.14 1237.07 1105.15 1261.23C1102.81 1264.78 1091.45 1267.39 1086.73 1268.88L1083.78 1265.51C1073.02 1253.02 1061.56 1252.08 1049.18 1263.07C1043.34 1279.54 1045.21 1296.82 1048.83 1313.54C1052.05 1316.54 1053.92 1317.84 1057.54 1320.4C1063.71 1320.86 1068.35 1320.58 1074.52 1320.29C1079.13 1317.05 1086.68 1311.05 1084.76 1304.89C1081.52 1301.65 1078.68 1301.13 1074.26 1301.05L1065.14 1300.82C1065.15 1294.88 1063.86 1289.38 1064.78 1283.72L1066.67 1282.63C1079.65 1282.27 1093.45 1282.53 1106.49 1282.58C1106.91 1305.79 1112.55 1332.93 1081.86 1340.35C1050.44 1346.47 1021.51 1338.79 1022.21 1300.93C1022.8 1268.41 1015.08 1243.97 1056.36 1235.12Z" fill="white"/>
<path d="M831.889 1236.35C834.572 1236.18 835.048 1235.82 837.35 1237C839.389 1241.96 838.041 1261.9 838.039 1269.04C838.028 1303.61 846.374 1341.1 797.785 1342.07C745.838 1343.1 753.393 1301.98 753.541 1263C753.582 1256.38 752.096 1246.79 754.077 1240.92C755.69 1236.16 773.304 1235.91 776.399 1237.62C781.033 1243.49 776.32 1288.77 777.555 1299.42C779.92 1319.81 786.438 1321.76 805.965 1319.99C809.555 1316.48 810.785 1314.65 813.703 1310.63C815.104 1288.1 813.761 1260.7 814.339 1237.3C821.29 1237.34 824.984 1237.14 831.889 1236.35Z" fill="white"/>
<path d="M1223.58 1236.35C1227.05 1236.38 1225.69 1235.73 1228.09 1237.51C1230.06 1243.72 1229.14 1251.66 1228.95 1258.42L1181.74 1258.51C1181.63 1265.42 1181.6 1272.35 1181.64 1279.26C1186.93 1279.75 1192.4 1280.37 1197.7 1280.54C1204.63 1280.78 1212.03 1277.72 1218.3 1280.66C1222.99 1286.1 1221.32 1292.75 1220.99 1300.4C1212.32 1298.96 1191.96 1298.92 1182.01 1298.6C1181.6 1305.41 1181.75 1313.25 1181.72 1320.16C1194.98 1320.66 1209.92 1320.41 1223.32 1320.49C1226.93 1320.49 1225.46 1319.89 1228.28 1321.45C1230.58 1327.38 1229.44 1334.8 1229.11 1341.38C1205.8 1340.56 1181.03 1340.74 1157.67 1340.66C1157.28 1306.64 1157.5 1271.65 1157.71 1237.63C1176.76 1236.03 1202.62 1237.53 1223.58 1236.35Z" fill="white"/>
</svg>
